<?xml version="1.0" standalone="no"?>
<!DOCTYPE svg PUBLIC "-//W3C//DTD SVG 20010904//EN"
 "http://www.w3.org/TR/2001/REC-SVG-20010904/DTD/svg10.dtd">
<svg version="1.0" xmlns="http://www.w3.org/2000/svg"
 width="1024.000000pt" height="1024.000000pt" viewBox="0 0 1024.000000 1024.000000"
 preserveAspectRatio="xMidYMid meet">

<g transform="translate(0.000000,1024.000000) scale(0.100000,-0.100000)"
fill="#000000" stroke="none">
<path d="M5085 8904 c-118 -19 -219 -67 -292 -140 -67 -66 -108 -152 -134
-276 -18 -88 -19 -144 -19 -968 0 -855 -1 -876 -20 -908 -11 -18 -34 -41 -52
-52 -32 -20 -53 -20 -1306 -20 -1240 0 -1277 -1 -1373 -20 -135 -28 -198 -57
-273 -130 -191 -183 -191 -487 0 -670 75 -73 138 -102 273 -130 96 -19 133
-20 1373 -20 1253 0 1274 0 1306 -20 18 -11 41 -34 52 -52 19 -31 20 -51 20
-388 0 -337 -1 -357 -20 -388 -11 -18 -34 -41 -52 -52 -32 -20 -54 -20 -1308
-20 -1227 0 -1279 -1 -1370 -20 -232 -48 -372 -181 -410 -390 -15 -82 -7 -143
37 -295 190 -661 672 -1355 1258 -1812 386 -301 787 -513 1195 -631 188 -55
508 -127 675 -152 200 -30 459 -38 556 -16 221 49 341 175 390 408 18 88 19
144 19 963 0 850 1 871 20 903 11 18 34 41 52 52 32 19 52 20 893 20 957 0
891 5 922 -68 14 -34 14 -35 -31 -102 -58 -87 -180 -238 -300 -370 -206 -226
-246 -412 -137 -628 41 -81 139 -171 227 -208 63 -26 80 -28 189 -29 117 0
122 1 195 36 96 46 174 112 297 252 386 437 662 917 798 1387 43 151 51 217
35 295 -43 209 -180 338 -410 385 -91 19 -143 20 -1370 20 -1254 0 -1276 0
-1308 20 -18 11 -41 34 -52 52 -19 31 -20 51 -20 388 0 337 1 357 20 388 11
18 34 41 52 52 32 20 53 20 1306 20 1249 0 1276 0 1375 21 138 28 209 63 285
143 96 99 141 227 129 359 -14 143 -129 472 -255 722 -199 398 -520 823 -834
1102 -445 396 -918 669 -1408 811 -188 55 -508 127 -675 152 -134 20 -450 35
-520 24z m731 -1018 c284 -77 623 -230 884 -400 278 -182 582 -482 770 -762
58 -85 60 -106 10 -155 l-28 -29 -869 0 c-848 0 -869 1 -901 20 -18 11 -41 34
-52 52 -19 32 -20 52 -20 622 l0 589 44 43 c24 24 50 44 57 44 8 0 55 -11 105
-24z m-1248 -4226 c18 -11 41 -34 52 -52 19 -32 20 -52 20 -614 l0 -581 -35
-36 c-20 -20 -46 -39 -59 -43 -30 -7 -177 32 -339 90 -334 121 -619 278 -867
476 -197 158 -439 418 -566 610 -45 67 -45 68 -31 102 31 73 -35 68 927 68
845 0 866 -1 898 -20z"/>
<path d="M6330 2519 c-95 -17 -182 -64 -255 -140 -149 -154 -177 -366 -72
-562 85 -160 294 -260 475 -228 238 42 402 233 402 466 0 153 -78 306 -199
389 -91 63 -238 95 -351 75z"/>
</g>
</svg>
